PathFileType	4	(X/Y/Z)	c:/Users/goper/Files/vsCode/490R/osim_files/C06/C06_Slow_02.trc
DataRate	CameraRate	NumFrames	NumMarkers	Units                	OrigDataRate	OrigDataStartFrame	OrigNumFrames
250.00	250.00	7	36	mm	250.0	2319	3710
                Frame#	Time	LPSIS			LASIS			LTH1			LTH2			LTH3			LTH4			LLFE			LMFE			LSH1			LSH2			LSH3			LSH4			LLMAL			LMMAL			LCAL			LMTP5			LTOE			LMTP1			RPSIS			RASIS			RTH1			RTH2			RTH3			RTH4			RLFE			RMFE			RSH1			RSH2			RSH3			RSH4			RLMAL			RMMAL			RCAL			RMTP1			RTOE			RMTP5		
		X1	Y1	Z1	X2	Y2	Z2	X3	Y3	Z3	X4	Y4	Z4	X5	Y5	Z5	X6	Y6	Z6	X7	Y7	Z7	X8	Y8	Z8	X9	Y9	Z9	X10	Y10	Z10	X11	Y11	Z11	X12	Y12	Z12	X13	Y13	Z13	X14	Y14	Z14	X15	Y15	Z15	X16	Y16	Z16	X17	Y17	Z17	X18	Y18	Z18	X19	Y19	Z19	X20	Y20	Z20	X21	Y21	Z21	X22	Y22	Z22	X23	Y23	Z23	X24	Y24	Z24	X25	Y25	Z25	X26	Y26	Z26	X27	Y27	Z27	X28	Y28	Z28	X29	Y29	Z29	X30	Y30	Z30	X31	Y31	Z31	X32	Y32	Z32	X33	Y33	Z33	X34	Y34	Z34	X35	Y35	Z35	X36	Y36	Z36

2319	9.27200	-2161.50952	1001.12238	235.16689	-2345.09131	986.61371	322.19104	-2303.51025	776.62982	400.04703	-2322.49438	716.75702	395.10083	-2372.53516	793.51233	374.73697	-2382.22461	732.72699	372.64441	-2381.10474	471.99445	326.72177	-2367.05591	458.74002	212.69585	-2317.35986	361.11298	347.33612	-2321.19067	318.27689	341.16476	-2380.14575	363.54642	337.53400	-2375.46997	318.49902	334.31577	-2323.49194	85.83844	281.31015	-2329.35278	109.88904	206.57036	-2254.84351	68.20952	236.26926	-2433.32056	31.62488	296.55109	-2482.99561	51.34038	227.93442	-2451.79248	38.52260	183.33374	-2155.97314	993.96277	164.74728	-2333.58667	967.58252	83.84323	-2252.90527	762.79077	13.02979	-2274.25684	701.51202	12.83184	-2327.45752	776.86572	22.60552	-2334.31934	714.19037	21.41985	-2293.61694	442.81055	39.81553	-2331.49219	438.17337	147.03629	-2200.08789	433.09949	24.43167	-2163.25049	401.95264	26.90952	-2232.30273	383.58875	31.04826	-2193.32886	358.66751	33.62600	-1976.78882	239.61490	84.54857	-2010.31873	247.80974	158.96959	-1932.46826	291.66983	130.71873	0.00000	0.00000	0.00000	-2011.60596	79.08601	134.01332	-1965.31836	105.36408	72.09319
2320	9.27600	-2165.32568	1001.95825	235.28357	-2348.90479	987.19031	322.43607	-2306.43091	777.15833	400.09851	-2325.06494	717.13574	395.10699	-2375.59814	793.66730	374.84018	-2384.78906	732.77423	372.68045	-2382.08374	472.02612	326.83765	-2368.22314	458.88718	212.33347	-2317.77222	361.21484	347.33542	-2321.61060	318.46619	341.19180	-2380.65088	363.58475	337.67578	-2375.79175	318.50153	334.41714	-2323.54297	85.90412	281.25037	-2329.38672	109.96787	206.58466	-2254.86304	68.26906	236.25710	-2433.32275	31.70903	296.48422	-2482.96289	51.27171	227.95412	-2451.81226	38.48969	183.33205	-2159.93359	994.73645	164.79597	-2337.34937	968.63684	84.04388	-2258.55786	763.50873	12.96174	-2280.33594	702.41119	12.69739	-2332.95972	778.29828	22.64553	-2340.43848	715.74664	21.30045	-2302.20386	443.95572	39.63435	-2340.61841	439.62228	146.76205	-2209.71606	434.11603	24.58878	-2172.65503	402.84152	26.88216	-2241.76245	384.54068	30.99378	-2202.70972	359.66013	33.37466	-1986.89661	239.39058	84.38734	-2020.38269	247.88727	158.79292	-1941.60657	290.72604	130.47444	0.00000	0.00000	0.00000	-2024.03076	78.88584	133.71907	-1977.49731	105.10798	71.52594
2321	9.28000	-2169.24780	1002.63867	235.32297	-2352.74341	987.70508	322.66516	-2309.30908	777.63654	400.17273	-2327.68457	717.57782	395.14319	-2378.51172	793.81201	374.89615	-2387.44409	732.87140	372.66339	-2382.73901	472.11221	326.98370	-2368.87085	458.81567	212.40599	-2318.28125	361.32388	347.40259	-2321.89380	318.60968	341.13992	-2381.10522	363.46979	338.08856	-2375.94849	318.81815	334.12259	-2323.59131	85.99619	281.19421	-2329.46411	110.02077	206.56798	-2254.88110	68.35072	236.19913	-2433.38330	31.66953	296.52127	-2483.04590	51.26966	227.93390	-2451.58716	38.37413	183.32912	-2163.55322	995.77960	164.94633	-2341.07349	969.64740	84.22827	-2264.25098	764.28333	12.82487	-2285.02075	703.38690	13.85287	-2338.40063	779.70929	22.62739	-2345.90845	717.27997	21.12026	-2311.32788	445.23032	39.33734	-2349.78442	441.20917	146.54239	-2219.00024	435.11447	24.59616	-2182.03613	403.74680	26.90495	-2251.24585	385.59445	30.82901	-2212.03784	360.56656	33.14664	-1997.23572	239.12825	84.23803	-2029.92114	248.08908	158.86366	-1950.80200	289.88242	130.51340	0.00000	0.00000	0.00000	-2036.49854	79.02660	133.20778	-1989.74768	104.80428	70.93031
2322	9.28400	-2172.92505	1003.55841	235.45627	-2356.50513	988.26855	322.89041	-2311.95142	778.00934	400.13263	-2329.97803	717.85071	395.08078	-2381.71362	794.16620	374.95877	-2390.03979	732.95862	372.70065	-2383.59058	472.10046	327.03961	-2369.57080	458.77216	212.49632	-2318.58569	361.49573	347.27094	-2322.05737	318.67221	341.03754	-2381.44238	363.46790	338.22189	-2376.32275	318.91095	334.30090	-2323.63745	86.08398	281.13614	-2329.53296	110.09589	206.51715	-2254.91162	68.44831	236.13989	-2433.39087	31.71908	296.47421	-2483.10449	51.24139	227.93840	-2451.60791	38.35090	183.31363	-2167.46069	996.52094	164.89133	-2344.79492	970.64679	84.43702	-2269.80444	765.06683	12.67915	-2289.97974	704.51886	14.71827	-2343.74829	781.16644	22.66259	-2351.99585	719.35406	20.66040	-2320.41309	446.47894	39.03344	-2358.95679	442.75751	146.24959	-2228.17749	436.12122	24.57740	-2191.29883	404.60751	26.90332	-2259.76196	387.03326	30.23952	-2221.43506	361.57834	32.88907	-2007.39062	238.68532	84.07632	-2041.21240	247.52489	157.83907	-1960.19849	288.68301	130.40048	0.00000	0.00000	0.00000	-2049.13818	79.20533	132.50371	-2002.04370	104.38216	70.29739
2323	9.28800	-2176.75903	1004.28564	235.52354	-2360.16113	988.71301	323.16171	-2314.96729	778.57172	400.17804	-2332.49097	718.29572	395.04105	-2384.35718	793.82788	375.27307	-2392.61426	733.04608	372.67773	-2384.31836	472.15976	327.12573	-2370.29858	458.80518	212.55067	-2318.65063	361.75192	346.98291	-2322.19189	318.80203	340.97809	-2381.57812	363.67859	337.96207	-2376.58740	318.60306	334.85919	-2323.67163	86.19087	281.05978	-2329.59399	110.16761	206.49422	-2254.92383	68.55302	236.08621	-2433.39600	31.75667	296.45685	-2483.10620	51.21944	227.94492	-2451.63062	38.35650	183.32858	-2170.97095	997.52075	164.98810	-2348.46802	971.64539	84.64545	-2275.30127	765.87079	12.53174	-2295.65283	705.78790	14.93017	-2349.03149	782.62207	22.81422	-2357.88306	720.84479	20.53311	-2329.38599	447.83365	38.80038	-2367.98999	444.29126	146.00175	-2237.32959	437.05847	24.58433	-2200.76782	405.43405	26.79612	-2269.27783	388.16916	30.06656	-2231.04834	362.49634	32.89188	-2017.81641	238.09087	83.88943	-2051.46167	247.19380	157.61528	-1969.79260	287.23734	130.33878	0.00000	0.00000	0.00000	-2061.87720	79.10305	131.80368	-2014.50818	103.75097	69.60115
2324	9.29200	-2180.55298	1005.05017	235.56668	-2363.87231	989.24261	323.38391	-2317.60547	778.98328	400.16690	-2334.97778	718.69580	394.98444	-2387.23633	793.94043	375.35428	-2395.13940	733.09094	372.70938	-2385.08057	472.20551	327.16840	-2371.01294	458.83868	212.55318	-2318.82739	361.90839	346.82852	-2322.26562	318.91986	340.90332	-2381.89014	363.74280	338.09430	-2376.82739	318.67816	334.97906	-2323.70532	86.26884	280.96658	-2329.62549	110.23297	206.48123	-2254.92944	68.61910	236.04422	-2433.39111	31.78613	296.46320	-2483.13989	51.20897	227.93359	-2451.64819	38.35775	183.33801	-2174.60986	998.35706	165.03497	-2352.09058	972.58716	84.84129	-2281.32007	766.45416	12.23878	-2301.81201	707.11792	14.66667	-2354.33936	784.13232	22.92717	-2363.78760	722.41333	20.44522	-2337.48730	449.33463	38.33712	-2377.05591	446.00348	145.70070	-2246.58716	437.93445	24.66129	-2209.66479	406.16409	26.63692	-2278.36572	389.34265	29.70671	-2240.50488	363.43539	32.64735	-2028.18726	237.40826	83.73389	-2061.81421	246.66554	157.30899	-1979.36829	285.69977	130.37645	0.00000	0.00000	0.00000	-2074.72534	78.99053	130.90607	-2026.89172	103.10943	68.89200
2325	9.29600	-2184.31323	1005.72168	235.61681	-2367.58350	989.69434	323.60181	-2320.27686	779.37079	400.13202	-2337.45728	719.01520	394.96533	-2390.10498	794.05103	375.40906	-2397.87158	733.22290	372.82993	-2385.87305	472.18243	327.23425	-2371.17554	458.72128	212.80115	-2318.96143	362.07373	346.65262	-2322.32349	319.02090	340.77341	-2382.28589	364.06519	337.86487	-2376.95581	318.69351	335.08548	-2323.75537	86.35239	280.86728	-2328.11572	111.14396	207.61862	-2254.97192	68.70585	235.99507	-2433.42456	31.81154	296.43307	-2483.14868	51.17743	227.94325	-2451.96460	38.47424	183.37436	-2178.49780	999.03546	164.99400	-2355.81519	973.52429	85.08291	-2291.37793	765.05182	13.15473	-2308.22876	708.43274	14.10593	-2359.11987	785.98730	22.94695	-2369.58203	723.93341	20.37742	-2346.37158	450.74979	38.10366	-2385.79858	447.47202	145.43512	-2255.51294	438.88370	24.65042	-2218.52856	407.12704	26.72838	-2287.69458	390.58270	29.52024	-2250.06177	364.27267	32.44926	-2038.77686	236.16481	83.52053	-2072.60474	245.90311	157.03430	-1989.15137	283.86804	130.40767	0.00000	0.00000	0.00000	-2087.60620	78.63290	130.03392	-2039.53235	102.31803	68.11278
